<?xml version="1.0" encoding="UTF-8" standalone="no"?>
<!DOCTYPE svg PUBLIC "-//W3C//DTD SVG 1.1//EN" "http://www.w3.org/Graphics/SVG/1.1/DTD/svg11.dtd">
<svg width="500" height="500" viewBox="0 0 500 500" version="1.1" xmlns="http://www.w3.org/2000/svg">
<path d="M7.6,287.9C17.2,309.1 31,319.1 50,319.1C61.2,319.1 70.2,315.4 77,308.5C83.4,
301.6 86.6,291.6 86.6,279.9L86.6,175.6L61.7,175.6L61.7,276.2C61.7,288.9 57.4,294.8 49,
294.8C41,294.8 34.7,288.9 29.4,275.2L7.6,287.9ZM160.2,290L167.1,319.1L190.9,319.1L153.3,
175.6L128.4,175.6L90.3,319.1L114.1,319.1L121.5,290L160.2,290ZM126.3,268.3L140.6,210.5L
155.4,268.3L126.3,268.3ZM195.7,302.7C206.8,313.8 217.4,319.1 229.6,319.1C239.7,319.1
248.1,316 255,310.1C261.4,304.3 264.6,296.4 264.6,286.8C264.6,275.7 260.3,265.6
252.4,256.1L228,225.9C222.7,219.5 220.1,214.2 220.1,211.1C220.1,203.1 224.3,199.4 232.3,199.4C239.1,199.4 249.2,205.8 260.9,218.5L260.9,188.3C251.9,179.8 242.3,175.6 232.3,175.6C221.1,175.6 212.7,178.8 205.8,184.6C198.9,190.4 195.7,198.4 195.7,208.4
C195.7,219 199.4,229.6 207.4,238.6L231.7,268.8C237,275.7 239.7,281.5 239.7,285.8
C239.7,292.1 236,295.8 228,295.8C221.1,295.8 210.5,287.9 195.7,270.9L195.7,302.7Z
M38.4,175.6C68.6,88.2 151.7,25.7 250.3,25.7C374.2,25.7 474.3,125.8 474.3,249.7C474.3,
374.2 374.2,474.3 250.3,474.3C154.4,474.3 73.3,415 41,331.3L19.3,331.3C52.7,426.7
143.3,495 250.3,495C385.3,495 495,385.3 495,249.7C495,114.7 385.3,5 250.3,5C140.6,5
48.4,77 16.7,175.6L38.4,175.6Z"/>
</svg>
